<?xml version="1.0" encoding="utf-8"?>
<!-- Generator: Adobe Illustrator 28.1.0, SVG Export Plug-In . SVG Version: 6.00 Build 0)  -->
<svg version="1.1" id="Layer_1" xmlns="http://www.w3.org/2000/svg" xmlns:xlink="http://www.w3.org/1999/xlink" x="0px" y="0px"
	 viewBox="0 0 616 275" style="enable-background:new 0 0 616 275;" xml:space="preserve">
<style type="text/css">
	.st0{fill:#222222;}
</style>
<g>
	<path class="st0" d="M204.9,198.38v12.53c0,0.08-0.06,0.14-0.14,0.14H65.59c-0.08,0-0.14-0.06-0.14-0.14V71.74
		c0-0.08,0.06-0.14,0.14-0.14h139.17c0.08,0,0.14,0.06,0.14,0.14v14.48h8.78V71.74c0-4.92-4-8.92-8.92-8.92H65.59
		c-4.92,0-8.92,4-8.92,8.92v139.17c0,4.92,4,8.92,8.92,8.92h139.17c4.92,0,8.92-4,8.92-8.92v-12.53H204.9z"/>
	<g>
		<path class="st0" d="M102.58,115.38l-11.92,7.21c-0.43,0.26-0.97-0.05-0.97-0.55v-8.68c0-0.23,0.12-0.43,0.31-0.55l13.39-8.01
			c0.1-0.06,0.21-0.09,0.33-0.09h8.44c0.35,0,0.64,0.29,0.64,0.64v72.35c0,0.35-0.29,0.64-0.64,0.64h-7.98
			c-0.35,0-0.64-0.29-0.64-0.64v-61.78C103.55,115.43,103.01,115.12,102.58,115.38z"/>
		<path class="st0" d="M182.24,107.87l-23.91,25.84c-0.2,0.22-0.23,0.54-0.07,0.79l26.82,42.86c0.27,0.43-0.04,1-0.55,1h-11.44
			c-0.23,0-0.44-0.12-0.56-0.31l-21.55-35.15c-0.23-0.37-0.74-0.42-1.03-0.1l-6.81,7.36c-0.11,0.12-0.17,0.28-0.17,0.44v27.11
			c0,0.36-0.29,0.65-0.65,0.65h-9.54c-0.36,0-0.65-0.29-0.65-0.65v-70.27c0-0.36,0.29-0.65,0.65-0.65h9.54
			c0.36,0,0.65,0.29,0.65,0.65v26.82c0,0.59,0.73,0.88,1.13,0.44l25.57-27.71c0.12-0.13,0.3-0.21,0.48-0.21h11.62
			C182.33,106.78,182.63,107.45,182.24,107.87z"/>
	</g>
	<g>
		<path class="st0" d="M203.9,177.97v-71.58h10.84v62.58h32.11v9H203.9z"/>
		<path class="st0" d="M277.73,179.19c-5.05,0-9.48-1.12-13.29-3.37c-3.82-2.25-6.8-5.38-8.95-9.41c-2.15-4.02-3.22-8.62-3.22-13.8
			c0-5.38,1.07-10.05,3.22-14.01c2.15-3.95,5.13-7.04,8.95-9.25c3.82-2.21,8.28-3.32,13.39-3.32c4.91,0,9.19,1.07,12.83,3.22
			c3.65,2.15,6.53,5.08,8.64,8.79c2.11,3.72,3.17,7.92,3.17,12.63c0,0.89-0.02,1.69-0.05,2.4c-0.03,0.72-0.12,1.55-0.26,2.5h-38.96
			c0.2,2.86,0.92,5.39,2.15,7.57c1.23,2.18,2.88,3.9,4.96,5.16c2.08,1.26,4.48,1.89,7.21,1.89c3,0,5.52-0.66,7.57-1.99
			c2.04-1.33,3.61-3.22,4.7-5.67h11.25c-0.89,3.07-2.37,5.86-4.45,8.38c-2.08,2.52-4.7,4.53-7.87,6.03
			C285.55,178.44,281.88,179.19,277.73,179.19z M263.31,147.8h28.12c-0.14-3.95-1.55-7.07-4.24-9.36c-2.69-2.28-5.92-3.43-9.66-3.43
			c-3.41,0-6.51,1.06-9.3,3.17C265.42,140.3,263.78,143.51,263.31,147.8z"/>
		<path class="st0" d="M327.72,179.19c-3.2,0-6.17-0.6-8.9-1.79c-2.73-1.19-4.91-2.95-6.54-5.27c-1.64-2.32-2.45-5.11-2.45-8.38
			c0-3.82,0.97-6.92,2.91-9.3c1.94-2.39,4.57-4.12,7.87-5.22c3.31-1.09,6.94-1.64,10.89-1.64h12.88c0-2.93-0.48-5.3-1.43-7.11
			c-0.96-1.8-2.27-3.15-3.94-4.04c-1.67-0.89-3.6-1.33-5.78-1.33c-2.8,0-5.27,0.66-7.41,1.99c-2.15,1.33-3.49,3.46-4.04,6.39h-10.94
			c0.34-3.68,1.59-6.82,3.73-9.41c2.15-2.59,4.87-4.58,8.18-5.98c3.31-1.4,6.83-2.1,10.58-2.1c4.98,0,9.07,0.9,12.27,2.71
			c3.2,1.81,5.62,4.31,7.26,7.52c1.64,3.21,2.45,6.89,2.45,11.04v15.44c0.07,1.98,0.49,3.43,1.28,4.35
			c0.78,0.92,2.16,1.45,4.14,1.59v9.3c-2.73,0-5.08-0.31-7.06-0.92c-1.98-0.61-3.63-1.53-4.96-2.76s-2.37-2.86-3.12-4.91
			c-1.64,2.8-4.02,5.13-7.16,7C335.32,178.25,331.75,179.19,327.72,179.19z M330.28,170.3c2.86,0,5.33-0.7,7.41-2.1
			c2.08-1.4,3.72-3.22,4.91-5.47c1.19-2.25,1.79-4.7,1.79-7.36v-0.31h-12.17c-1.91,0-3.73,0.24-5.47,0.72
			c-1.74,0.48-3.14,1.28-4.19,2.4c-1.06,1.12-1.58,2.68-1.58,4.65c0,2.59,0.92,4.48,2.76,5.67
			C325.58,169.7,327.76,170.3,330.28,170.3z"/>
		<path class="st0" d="M390.51,179.19c-5.04,0-9.37-1.21-12.99-3.63c-3.61-2.42-6.41-5.64-8.39-9.66c-1.98-4.02-2.96-8.52-2.96-13.5
			c0-4.91,0.99-9.36,2.96-13.34c1.98-3.99,4.79-7.16,8.44-9.51c3.65-2.35,7.99-3.53,13.04-3.53c3.68,0,7.07,0.77,10.17,2.3
			c3.1,1.53,5.61,3.7,7.52,6.49v-28.43h10.84v71.58h-10.43l-0.41-7.77c-1.7,2.59-4.09,4.74-7.16,6.44
			C398.07,178.34,394.53,179.19,390.51,179.19z M392.65,169.68c3.27,0,6.05-0.75,8.33-2.25c2.28-1.5,4.05-3.54,5.32-6.14
			c1.26-2.59,1.89-5.49,1.89-8.69c0-3.61-0.7-6.7-2.1-9.25c-1.4-2.56-3.27-4.5-5.62-5.83c-2.35-1.33-4.96-1.99-7.82-1.99
			c-3,0-5.64,0.72-7.92,2.15c-2.29,1.43-4.09,3.41-5.42,5.93c-1.33,2.52-1.99,5.49-1.99,8.9c0,3.41,0.68,6.41,2.04,9
			c1.36,2.59,3.2,4.6,5.52,6.03C387.2,168.97,389.79,169.68,392.65,169.68z"/>
		<path class="st0" d="M454.31,179.19c-5.05,0-9.48-1.12-13.29-3.37c-3.82-2.25-6.8-5.38-8.95-9.41c-2.15-4.02-3.22-8.62-3.22-13.8
			c0-5.38,1.07-10.05,3.22-14.01c2.15-3.95,5.13-7.04,8.95-9.25c3.82-2.21,8.28-3.32,13.39-3.32c4.91,0,9.19,1.07,12.83,3.22
			c3.65,2.15,6.53,5.08,8.64,8.79c2.11,3.72,3.17,7.92,3.17,12.63c0,0.89-0.02,1.69-0.05,2.4c-0.03,0.72-0.12,1.55-0.26,2.5h-38.96
			c0.2,2.86,0.92,5.39,2.15,7.57c1.23,2.18,2.88,3.9,4.96,5.16c2.08,1.26,4.48,1.89,7.21,1.89c3,0,5.52-0.66,7.57-1.99
			c2.04-1.33,3.61-3.22,4.7-5.67h11.25c-0.89,3.07-2.37,5.86-4.45,8.38c-2.08,2.52-4.7,4.53-7.87,6.03
			C462.13,178.44,458.47,179.19,454.31,179.19z M439.89,147.8h28.12c-0.14-3.95-1.55-7.07-4.24-9.36c-2.69-2.28-5.92-3.43-9.66-3.43
			c-3.41,0-6.51,1.06-9.3,3.17C442,140.3,440.37,143.51,439.89,147.8z"/>
		<path class="st0" d="M488.15,177.97v-50.72h10.43l0.31,8.59c1.7-3.07,4.04-5.47,7-7.21c2.97-1.74,6.42-2.61,10.38-2.61v11.35
			h-2.86c-4.91,0-8.54,1.24-10.89,3.73c-2.35,2.49-3.53,6.29-3.53,11.4v25.46H488.15z"/>
		<path class="st0" d="M544.19,179.19c-3.89,0-7.46-0.7-10.74-2.1c-3.27-1.4-5.93-3.39-7.98-5.98c-2.04-2.59-3.24-5.62-3.58-9.1
			h10.94c0.48,2.45,1.74,4.47,3.78,6.03c2.05,1.57,4.57,2.35,7.57,2.35c2.79,0,5.03-0.6,6.7-1.79c1.67-1.19,2.51-2.78,2.51-4.75
			c0-1.7-0.55-3.03-1.64-3.99c-1.09-0.95-2.52-1.69-4.29-2.2c-1.77-0.51-3.68-1-5.73-1.48c-3.14-0.68-6.08-1.57-8.84-2.66
			c-2.76-1.09-4.99-2.61-6.7-4.55c-1.7-1.94-2.56-4.48-2.56-7.62c0-3.2,0.85-5.95,2.56-8.23c1.7-2.28,4.02-4.04,6.95-5.27
			c2.93-1.23,6.24-1.84,9.92-1.84c5.52,0,10.12,1.4,13.8,4.19c3.68,2.8,5.73,6.82,6.13,12.07h-10.43c-0.27-2.39-1.28-4.23-3.02-5.52
			c-1.74-1.29-4-1.94-6.8-1.94c-2.45,0-4.47,0.5-6.03,1.48c-1.57,0.99-2.35,2.51-2.35,4.55c0,1.36,0.54,2.49,1.64,3.37
			c1.09,0.89,2.51,1.64,4.24,2.25c1.74,0.61,3.56,1.13,5.47,1.53c3.48,0.82,6.58,1.77,9.3,2.86c2.73,1.09,4.91,2.61,6.54,4.55
			c1.64,1.94,2.45,4.65,2.45,8.13c0.07,3.2-0.77,5.98-2.51,8.33c-1.74,2.35-4.11,4.16-7.11,5.42
			C551.41,178.56,548,179.19,544.19,179.19z"/>
	</g>
</g>
</svg>
